<svg xmlns="http://www.w3.org/2000/svg" width="120" height="120" viewBox="0 0 120 120">
  <g fill="none">
    <rect x="7" y="7" width="106" height="106" stroke="#a87f25" stroke-width="3.4"/>
    <rect x="12" y="12" width="96" height="96" stroke="#9b1b1b" stroke-width="1"/>
    <rect x="15.5" y="15.5" width="89" height="89" stroke="#caa53d" stroke-width="1.3"/>
  </g>
  <g>
    <g transform="translate(7 7)">
      <rect x="-6.5" y="-6.5" width="13" height="13" transform="rotate(45)" fill="#a87f25"/>
      <rect x="-3.6" y="-3.6" width="7.2" height="7.2" transform="rotate(45)" fill="#9b1b1b"/>
      <circle r="1.5" fill="#f0d98a"/>
    </g>
    <g transform="translate(113 7)">
      <rect x="-6.5" y="-6.5" width="13" height="13" transform="rotate(45)" fill="#a87f25"/>
      <rect x="-3.6" y="-3.6" width="7.2" height="7.2" transform="rotate(45)" fill="#9b1b1b"/>
      <circle r="1.5" fill="#f0d98a"/>
    </g>
    <g transform="translate(113 113)">
      <rect x="-6.5" y="-6.5" width="13" height="13" transform="rotate(45)" fill="#a87f25"/>
      <rect x="-3.6" y="-3.6" width="7.2" height="7.2" transform="rotate(45)" fill="#9b1b1b"/>
      <circle r="1.5" fill="#f0d98a"/>
    </g>
    <g transform="translate(7 113)">
      <rect x="-6.5" y="-6.5" width="13" height="13" transform="rotate(45)" fill="#a87f25"/>
      <rect x="-3.6" y="-3.6" width="7.2" height="7.2" transform="rotate(45)" fill="#9b1b1b"/>
      <circle r="1.5" fill="#f0d98a"/>
    </g>
  </g>
</svg>
