<svg xmlns="http://www.w3.org/2000/svg" width="600" height="740" viewBox="0 0 600 740">
  <defs>
    <linearGradient id="hide" x1="0" y1="0" x2="1" y2="1">
      <stop offset="0" stop-color="#7c5230"/><stop offset="0.5" stop-color="#603e20"/><stop offset="1" stop-color="#3c2410"/>
    </linearGradient>
    <radialGradient id="lit" cx="50%" cy="34%" r="72%">
      <stop offset="0" stop-color="#8a5c33" stop-opacity="0.85"/>
      <stop offset="55%" stop-color="#6a431f" stop-opacity="0"/>
      <stop offset="100%" stop-color="#160c05" stop-opacity="0.7"/>
    </radialGradient>
    <filter id="grain"><feTurbulence type="fractalNoise" baseFrequency="0.86" numOctaves="2" seed="11" stitchTiles="stitch" result="n"/>
      <feColorMatrix in="n" type="matrix" values="0 0 0 0 0  0 0 0 0 0  0 0 0 0 0  0 0 0 0.5 0"/></filter>
    <filter id="mottle"><feTurbulence type="fractalNoise" baseFrequency="0.012 0.018" numOctaves="3" seed="4" result="n"/>
      <feColorMatrix in="n" type="matrix" values="0 0 0 0 0  0 0 0 0 0  0 0 0 0 0  0 0 0 0.7 0"/></filter>
  </defs>

  <rect width="600" height="740" rx="12" fill="url(#hide)"/>
  <rect width="600" height="740" rx="12" filter="url(#mottle)" opacity="0.22" fill="#3a2310"/>
  <rect width="600" height="740" rx="12" filter="url(#grain)" opacity="0.10" style="mix-blend-mode:multiply"/>
  <rect width="600" height="740" rx="12" fill="url(#lit)"/>

  <g stroke="#c39a5e" stroke-width="5" fill="none" opacity="0.5" transform="translate(0 1.8)"><rect x="34" y="42" width="532" height="656" rx="8"/></g><g stroke="#231307" stroke-width="5" fill="none" opacity="0.9"><rect x="34" y="42" width="532" height="656" rx="8"/></g>
  <g stroke="#c39a5e" stroke-width="2.4" fill="none" opacity="0.5" transform="translate(0 1.8)"><rect x="52" y="60" width="496" height="620" rx="6"/></g><g stroke="#231307" stroke-width="2.4" fill="none" opacity="0.7"><rect x="52" y="60" width="496" height="620" rx="6"/></g>

  <g stroke="#c39a5e" stroke-width="4" fill="none" opacity="0.5" transform="translate(0 1.8)"><rect x="161" y="241" width="132" height="132" rx="5"/></g><g stroke="#231307" stroke-width="4" fill="none" opacity="0.9"><rect x="161" y="241" width="132" height="132" rx="5"/></g><g stroke="#c39a5e" stroke-width="3.4" fill="none" opacity="0.5" transform="translate(0 1.8)"><path transform="translate(183.4 266.9) scale(0.871)" stroke-width="3.9" d="M50 84 C20 64 6 46 6 30 C6 16 17 8 28 8 C37 8 45 14 50 22 C55 14 63 8 72 8 C83 8 94 16 94 30 C94 46 80 64 50 84 Z"/></g><g stroke="#231307" stroke-width="3.4" fill="none" opacity="0.9"><path transform="translate(183.4 266.9) scale(0.871)" stroke-width="3.9" d="M50 84 C20 64 6 46 6 30 C6 16 17 8 28 8 C37 8 45 14 50 22 C55 14 63 8 72 8 C83 8 94 16 94 30 C94 46 80 64 50 84 Z"/></g><g stroke="#c39a5e" stroke-width="4" fill="none" opacity="0.5" transform="translate(0 1.8)"><rect x="307" y="241" width="132" height="132" rx="5"/></g><g stroke="#231307" stroke-width="4" fill="none" opacity="0.9"><rect x="307" y="241" width="132" height="132" rx="5"/></g><g stroke="#c39a5e" stroke-width="3.2" fill="none" opacity="0.5" transform="translate(0 1.8)"><path d="M336.04 334.72 L336.04 311.43519999999995 L350.824 290.368 L363.3904 311.43519999999995 L373 279.28 L382.6096 311.43519999999995 L395.176 290.368 L409.96 311.43519999999995 L409.96 334.72 Z"/><line x1="339.04" y1="325.8496" x2="406.96" y2="325.8496"/><circle cx="350.824" cy="286.368" r="3"/><circle cx="373" cy="275.28" r="3.4"/><circle cx="395.176" cy="286.368" r="3"/></g><g stroke="#231307" stroke-width="3.2" fill="none" opacity="0.9"><path d="M336.04 334.72 L336.04 311.43519999999995 L350.824 290.368 L363.3904 311.43519999999995 L373 279.28 L382.6096 311.43519999999995 L395.176 290.368 L409.96 311.43519999999995 L409.96 334.72 Z"/><line x1="339.04" y1="325.8496" x2="406.96" y2="325.8496"/><circle cx="350.824" cy="286.368" r="3"/><circle cx="373" cy="275.28" r="3.4"/><circle cx="395.176" cy="286.368" r="3"/></g><g stroke="#c39a5e" stroke-width="4" fill="none" opacity="0.5" transform="translate(0 1.8)"><rect x="161" y="387" width="132" height="132" rx="5"/></g><g stroke="#231307" stroke-width="4" fill="none" opacity="0.9"><rect x="161" y="387" width="132" height="132" rx="5"/></g><g stroke="#c39a5e" stroke-width="3.2" fill="none" opacity="0.5" transform="translate(0 1.8)"><path d="M190.04 480.72 L190.04 457.43519999999995 L204.824 436.368 L217.3904 457.43519999999995 L227 425.28 L236.6096 457.43519999999995 L249.176 436.368 L263.96 457.43519999999995 L263.96 480.72 Z"/><line x1="193.04" y1="471.8496" x2="260.96" y2="471.8496"/><circle cx="204.824" cy="432.368" r="3"/><circle cx="227" cy="421.28" r="3.4"/><circle cx="249.176" cy="432.368" r="3"/></g><g stroke="#231307" stroke-width="3.2" fill="none" opacity="0.9"><path d="M190.04 480.72 L190.04 457.43519999999995 L204.824 436.368 L217.3904 457.43519999999995 L227 425.28 L236.6096 457.43519999999995 L249.176 436.368 L263.96 457.43519999999995 L263.96 480.72 Z"/><line x1="193.04" y1="471.8496" x2="260.96" y2="471.8496"/><circle cx="204.824" cy="432.368" r="3"/><circle cx="227" cy="421.28" r="3.4"/><circle cx="249.176" cy="432.368" r="3"/></g><g stroke="#c39a5e" stroke-width="4" fill="none" opacity="0.5" transform="translate(0 1.8)"><rect x="307" y="387" width="132" height="132" rx="5"/></g><g stroke="#231307" stroke-width="4" fill="none" opacity="0.9"><rect x="307" y="387" width="132" height="132" rx="5"/></g><g stroke="#c39a5e" stroke-width="3.4" fill="none" opacity="0.5" transform="translate(0 1.8)"><path transform="translate(329.4 412.9) scale(0.871)" stroke-width="3.9" d="M50 84 C20 64 6 46 6 30 C6 16 17 8 28 8 C37 8 45 14 50 22 C55 14 63 8 72 8 C83 8 94 16 94 30 C94 46 80 64 50 84 Z"/></g><g stroke="#231307" stroke-width="3.4" fill="none" opacity="0.9"><path transform="translate(329.4 412.9) scale(0.871)" stroke-width="3.9" d="M50 84 C20 64 6 46 6 30 C6 16 17 8 28 8 C37 8 45 14 50 22 C55 14 63 8 72 8 C83 8 94 16 94 30 C94 46 80 64 50 84 Z"/></g>

  <rect width="600" height="740" rx="12" fill="none" stroke="#1a0e04" stroke-width="2" opacity="0.6"/>
</svg>